<svg xmlns="http://www.w3.org/2000/svg" xmlns:xlink="http://www.w3.org/1999/xlink" width="500" zoomAndPan="magnify" viewBox="0 0 375 374.999991" height="500" preserveAspectRatio="xMidYMid meet" version="1.0"><defs><g/></defs><g fill="#ff5757" fill-opacity="1"><g transform="translate(70.987207, 180.011981)"><g><path d="M 65.09375 -44.3125 C 65.226562 -45.789062 65.832031 -46.953125 66.90625 -47.796875 C 67.976562 -48.640625 69.191406 -49.179688 70.546875 -49.421875 C 72.015625 -49.671875 73.425781 -49.503906 74.78125 -48.921875 C 76.144531 -48.335938 76.957031 -47.304688 77.21875 -45.828125 C 77.34375 -45.128906 77.34375 -44.375 77.21875 -43.5625 C 76.332031 -37.59375 74.878906 -32.15625 72.859375 -27.25 C 70.847656 -22.34375 68.179688 -18.3125 64.859375 -15.15625 C 61.546875 -12 57.488281 -10.003906 52.6875 -9.171875 C 49.351562 -8.585938 46.191406 -8.710938 43.203125 -9.546875 C 40.222656 -10.378906 37.6875 -11.867188 35.59375 -14.015625 C 33.507812 -16.160156 32.171875 -18.929688 31.578125 -22.328125 C 31.171875 -24.640625 31.148438 -27.050781 31.515625 -29.5625 C 31.960938 -32.207031 32.351562 -34.484375 32.6875 -36.390625 C 33.019531 -38.304688 33.40625 -40.65625 33.84375 -43.4375 C 30.957031 -42.9375 28.1875 -42.4375 25.53125 -41.9375 C 22.875 -41.445312 20.046875 -40.9375 17.046875 -40.40625 C 16.585938 -37.289062 16.054688 -33.847656 15.453125 -30.078125 C 14.859375 -26.316406 14.257812 -22.550781 13.65625 -18.78125 C 13.0625 -15.007812 12.503906 -11.5625 11.984375 -8.4375 C 11.734375 -6.132812 10.9375 -4.375 9.59375 -3.15625 C 8.257812 -1.9375 6.789062 -1.1875 5.1875 -0.90625 C 3.269531 -0.570312 1.4375 -0.875 -0.3125 -1.8125 C -2.070312 -2.757812 -3.128906 -4.265625 -3.484375 -6.328125 C -3.648438 -7.285156 -3.625 -8.316406 -3.40625 -9.421875 L 1.078125 -37.625 L -1.234375 -37.234375 C -3.023438 -36.921875 -4.570312 -37.289062 -5.875 -38.34375 C -7.1875 -39.40625 -7.96875 -40.671875 -8.21875 -42.140625 C -8.488281 -43.679688 -8.09375 -45.203125 -7.03125 -46.703125 C -5.976562 -48.210938 -3.976562 -49.222656 -1.03125 -49.734375 L 3.203125 -50.484375 L 8.09375 -79.875 C 8.351562 -82.488281 9.210938 -84.535156 10.671875 -86.015625 C 12.140625 -87.492188 13.707031 -88.378906 15.375 -88.671875 C 17.101562 -88.972656 18.742188 -88.644531 20.296875 -87.6875 C 21.847656 -86.726562 22.816406 -85.128906 23.203125 -82.890625 C 23.429688 -81.609375 23.4375 -80.257812 23.21875 -78.84375 L 19.15625 -53.25 L 35.78125 -56.15625 C 36.269531 -59.082031 36.753906 -62.285156 37.234375 -65.765625 C 37.722656 -69.253906 38.222656 -72.738281 38.734375 -76.21875 C 39.253906 -79.707031 39.75 -82.921875 40.21875 -85.859375 C 40.695312 -88.441406 41.59375 -90.410156 42.90625 -91.765625 C 44.226562 -93.128906 45.6875 -93.953125 47.28125 -94.234375 C 49.144531 -94.554688 50.929688 -94.171875 52.640625 -93.078125 C 54.359375 -91.984375 55.414062 -90.316406 55.8125 -88.078125 C 55.976562 -87.109375 55.972656 -85.953125 55.796875 -84.609375 L 47.203125 -29.828125 C 46.898438 -27.847656 46.863281 -26.179688 47.09375 -24.828125 C 47.34375 -23.421875 47.875 -22.457031 48.6875 -21.9375 C 49.5 -21.414062 50.515625 -21.265625 51.734375 -21.484375 C 54.878906 -22.023438 57.613281 -24.316406 59.9375 -28.359375 C 62.269531 -32.398438 63.988281 -37.71875 65.09375 -44.3125 Z M 65.09375 -44.3125 "/></g></g></g><g fill="#ff5757" fill-opacity="1"><g transform="translate(137.032932, 168.515639)"><g><path d="M 43.921875 -35.578125 C 44.117188 -37.128906 44.78125 -38.382812 45.90625 -39.34375 C 47.03125 -40.300781 48.265625 -40.898438 49.609375 -41.140625 C 51.085938 -41.390625 52.453125 -41.210938 53.703125 -40.609375 C 54.960938 -40.003906 55.722656 -38.960938 55.984375 -37.484375 C 56.097656 -36.835938 56.085938 -36.144531 55.953125 -35.40625 C 54.890625 -28.9375 52.785156 -23.546875 49.640625 -19.234375 C 46.492188 -14.921875 42.785156 -11.566406 38.515625 -9.171875 C 34.242188 -6.785156 29.867188 -5.203125 25.390625 -4.421875 C 20.703125 -3.609375 16.351562 -3.628906 12.34375 -4.484375 C 8.332031 -5.335938 4.988281 -6.96875 2.3125 -9.375 C -0.351562 -11.78125 -2.015625 -14.867188 -2.671875 -18.640625 C -2.859375 -19.742188 -2.9375 -20.890625 -2.90625 -22.078125 C -2.882812 -23.273438 -2.78125 -24.484375 -2.59375 -25.703125 L 0.21875 -43.140625 C 1.050781 -48.222656 3.140625 -52.328125 6.484375 -55.453125 C 9.835938 -58.585938 13.660156 -60.53125 17.953125 -61.28125 C 21.609375 -61.914062 24.90625 -61.765625 27.84375 -60.828125 C 30.78125 -59.890625 33.210938 -58.332031 35.140625 -56.15625 C 37.078125 -53.976562 38.3125 -51.347656 38.84375 -48.265625 C 39.125 -46.671875 39.175781 -44.863281 39 -42.84375 C 38.457031 -38.332031 36.648438 -34.484375 33.578125 -31.296875 C 30.503906 -28.117188 26.789062 -26.148438 22.4375 -25.390625 C 20.507812 -25.054688 18.644531 -25.015625 16.84375 -25.265625 C 15.050781 -25.515625 13.378906 -25.9375 11.828125 -26.53125 L 11.375 -24.5625 C 11.257812 -24.082031 11.207031 -23.613281 11.21875 -23.15625 C 11.238281 -22.695312 11.289062 -22.238281 11.375 -21.78125 C 11.75 -19.613281 13.09375 -17.953125 15.40625 -16.796875 C 17.71875 -15.640625 20.640625 -15.367188 24.171875 -15.984375 C 26.921875 -16.460938 29.660156 -17.484375 32.390625 -19.046875 C 35.117188 -20.617188 37.53125 -22.773438 39.625 -25.515625 C 41.726562 -28.253906 43.160156 -31.609375 43.921875 -35.578125 Z M 19.65625 -49.875 C 18.5625 -49.6875 17.539062 -49.082031 16.59375 -48.0625 C 15.65625 -47.039062 15.054688 -45.742188 14.796875 -44.171875 L 13.78125 -38.078125 C 15.257812 -37.535156 16.988281 -37.4375 18.96875 -37.78125 C 20.445312 -38.039062 21.769531 -38.601562 22.9375 -39.46875 C 24.113281 -40.332031 24.789062 -41.601562 24.96875 -43.28125 C 25.09375 -44.03125 25.082031 -44.820312 24.9375 -45.65625 C 24.695312 -47.0625 24.09375 -48.175781 23.125 -49 C 22.164062 -49.820312 21.007812 -50.113281 19.65625 -49.875 Z M 19.65625 -49.875 "/></g></g></g><g fill="#ff5757" fill-opacity="1"><g transform="translate(182.601596, 160.583666)"><g><path d="M 10.390625 -18.84375 C 10.242188 -17.820312 10.226562 -16.988281 10.34375 -16.34375 C 10.664062 -14.488281 11.753906 -13.726562 13.609375 -14.0625 C 14.890625 -14.28125 16.234375 -15.070312 17.640625 -16.4375 C 19.054688 -17.800781 20.304688 -19.898438 21.390625 -22.734375 L 26.796875 -57.15625 C 27.171875 -59.207031 27.921875 -60.773438 29.046875 -61.859375 C 30.179688 -62.953125 31.421875 -63.613281 32.765625 -63.84375 C 34.554688 -64.15625 36.28125 -63.828125 37.9375 -62.859375 C 39.59375 -61.898438 40.59375 -60.425781 40.9375 -58.4375 C 41.070312 -57.664062 41.082031 -56.875 40.96875 -56.0625 L 34.21875 -14.5625 C 37.664062 -17.15625 40.640625 -20.25 43.140625 -23.84375 C 45.648438 -27.445312 47.378906 -31.84375 48.328125 -37.03125 C 48.710938 -39.019531 49.453125 -40.554688 50.546875 -41.640625 C 51.640625 -42.722656 52.828125 -43.375 54.109375 -43.59375 C 55.585938 -43.851562 56.929688 -43.625 58.140625 -42.90625 C 59.359375 -42.195312 60.113281 -41.007812 60.40625 -39.34375 C 60.539062 -38.570312 60.546875 -37.8125 60.421875 -37.0625 C 59.640625 -31.707031 58.300781 -27.03125 56.40625 -23.03125 C 54.519531 -19.039062 52.253906 -15.5625 49.609375 -12.59375 C 46.960938 -9.625 44.09375 -7.039062 41 -4.84375 C 37.914062 -2.65625 34.742188 -0.71875 31.484375 0.96875 C 31.117188 3.070312 30.742188 5.210938 30.359375 7.390625 C 29.972656 9.566406 29.613281 11.742188 29.28125 13.921875 C 28.257812 19.847656 25.910156 24.484375 22.234375 27.828125 C 18.554688 31.179688 14.347656 33.269531 9.609375 34.09375 C 6.460938 34.644531 3.398438 34.515625 0.421875 33.703125 C -2.554688 32.898438 -5.097656 31.476562 -7.203125 29.4375 C -9.304688 27.394531 -10.628906 24.832031 -11.171875 21.75 C -11.679688 18.8125 -11.46875 16.148438 -10.53125 13.765625 C -9.59375 11.390625 -8.128906 9.269531 -6.140625 7.40625 C -4.148438 5.539062 -1.863281 3.867188 0.71875 2.390625 C 3.300781 0.921875 6.007812 -0.390625 8.84375 -1.546875 C 5.59375 -1.628906 2.75 -2.597656 0.3125 -4.453125 C -2.125 -6.316406 -3.625 -8.882812 -4.1875 -12.15625 C -4.507812 -14.007812 -4.503906 -15.859375 -4.171875 -17.703125 L 1.703125 -52.796875 C 2.078125 -54.847656 2.828125 -56.414062 3.953125 -57.5 C 5.085938 -58.59375 6.328125 -59.253906 7.671875 -59.484375 C 9.472656 -59.796875 11.195312 -59.46875 12.84375 -58.5 C 14.5 -57.53125 15.5 -56.050781 15.84375 -54.0625 C 16 -53.164062 15.976562 -52.144531 15.78125 -51 Z M 14.65625 8.453125 C 11.65625 9.835938 9.15625 11.226562 7.15625 12.625 C 5.15625 14.03125 3.945312 15.628906 3.53125 17.421875 C 3.375 18.035156 3.359375 18.726562 3.484375 19.5 C 3.628906 20.332031 4.007812 21.007812 4.625 21.53125 C 5.25 22.050781 6.109375 22.21875 7.203125 22.03125 C 8.679688 21.769531 10.015625 21.070312 11.203125 19.9375 C 12.390625 18.8125 13.148438 17.289062 13.484375 15.375 Z M 14.65625 8.453125 "/></g></g></g><g fill="#ff5757" fill-opacity="1"><g transform="translate(27.383858, 286.567913)"><g/></g></g><g fill="#ff5757" fill-opacity="1"><g transform="translate(64.108982, 280.175302)"><g><path d="M 53.40625 -93.3125 C 55.070312 -93.601562 56.46875 -93.25 57.59375 -92.25 C 58.71875 -91.257812 59.410156 -90.023438 59.671875 -88.546875 C 59.941406 -87.003906 59.582031 -85.453125 58.59375 -83.890625 C 57.613281 -82.335938 55.78125 -81.328125 53.09375 -80.859375 L 37.421875 -78.140625 L 26.171875 -10.109375 C 25.847656 -8.191406 25.039062 -6.660156 23.75 -5.515625 C 22.46875 -4.367188 20.988281 -3.648438 19.3125 -3.359375 C 17.53125 -3.046875 15.789062 -3.300781 14.09375 -4.125 C 12.394531 -4.957031 11.367188 -6.367188 11.015625 -8.359375 C 10.953125 -8.734375 10.910156 -9.164062 10.890625 -9.65625 C 10.867188 -10.15625 10.914062 -10.644531 11.03125 -11.125 L 21.5625 -75.375 L 6.65625 -72.78125 C 4.914062 -72.476562 3.445312 -72.832031 2.25 -73.84375 C 1.050781 -74.863281 0.332031 -76.078125 0.09375 -77.484375 C -0.175781 -79.015625 0.179688 -80.539062 1.171875 -82.0625 C 2.160156 -83.59375 4.03125 -84.640625 6.78125 -85.203125 Z M 53.40625 -93.3125 "/></g></g></g><g fill="#ff5757" fill-opacity="1"><g transform="translate(121.598566, 270.168297)"><g><path d="M 49.9375 -37.40625 C 50.1875 -39.101562 50.804688 -40.40625 51.796875 -41.3125 C 52.796875 -42.21875 53.90625 -42.773438 55.125 -42.984375 C 56.65625 -43.253906 58.109375 -43.039062 59.484375 -42.34375 C 60.867188 -41.65625 61.691406 -40.578125 61.953125 -39.109375 C 62.035156 -38.585938 62.039062 -37.960938 61.96875 -37.234375 C 60.8125 -30.171875 59.082031 -24.523438 56.78125 -20.296875 C 54.488281 -16.066406 51.867188 -12.914062 48.921875 -10.84375 C 45.984375 -8.78125 42.976562 -7.476562 39.90625 -6.9375 C 37.207031 -6.476562 34.550781 -6.546875 31.9375 -7.140625 C 29.332031 -7.742188 27.097656 -8.941406 25.234375 -10.734375 C 23.367188 -12.523438 22.175781 -14.925781 21.65625 -17.9375 C 21.320312 -19.863281 21.332031 -22.046875 21.6875 -24.484375 L 25.203125 -45.796875 C 25.378906 -46.359375 25.410156 -46.957031 25.296875 -47.59375 C 25.140625 -48.488281 24.703125 -49.1875 23.984375 -49.6875 C 23.273438 -50.195312 22.441406 -50.367188 21.484375 -50.203125 C 20.003906 -49.941406 18.613281 -49.070312 17.3125 -47.59375 C 16.019531 -46.113281 15.023438 -44.359375 14.328125 -42.328125 L 8.421875 -7.40625 C 8.054688 -5.289062 7.296875 -3.65625 6.140625 -2.5 C 4.992188 -1.34375 3.71875 -0.644531 2.3125 -0.40625 C 0.707031 -0.125 -0.875 -0.488281 -2.4375 -1.5 C -4.007812 -2.519531 -4.984375 -4.117188 -5.359375 -6.296875 C -5.578125 -7.515625 -5.570312 -8.804688 -5.34375 -10.171875 L 6.359375 -79.5625 C 6.816406 -82.289062 7.566406 -84.335938 8.609375 -85.703125 C 9.648438 -87.078125 11.101562 -87.925781 12.96875 -88.25 C 14.570312 -88.53125 16.125 -88.238281 17.625 -87.375 C 19.132812 -86.507812 20.066406 -85.050781 20.421875 -83 C 20.535156 -82.363281 20.554688 -81.675781 20.484375 -80.9375 C 20.410156 -80.195312 20.3125 -79.414062 20.1875 -78.59375 L 17.21875 -59.859375 C 18.988281 -61.023438 20.960938 -61.796875 23.140625 -62.171875 C 25.765625 -62.628906 28.222656 -62.429688 30.515625 -61.578125 C 32.816406 -60.722656 34.757812 -59.375 36.34375 -57.53125 C 37.925781 -55.695312 38.9375 -53.5 39.375 -50.9375 C 39.519531 -50.101562 39.601562 -49.242188 39.625 -48.359375 C 39.644531 -47.472656 39.578125 -46.550781 39.421875 -45.59375 L 35.421875 -21.8125 C 35.304688 -21.394531 35.289062 -20.96875 35.375 -20.53125 C 35.488281 -19.820312 35.859375 -19.269531 36.484375 -18.875 C 37.117188 -18.488281 37.882812 -18.375 38.78125 -18.53125 C 40.96875 -18.914062 43.097656 -20.625 45.171875 -23.65625 C 47.242188 -26.6875 48.832031 -31.269531 49.9375 -37.40625 Z M 49.9375 -37.40625 "/></g></g></g><g fill="#ff5757" fill-opacity="1"><g transform="translate(173.127684, 261.198809)"><g><path d="M 43.921875 -35.578125 C 44.117188 -37.128906 44.78125 -38.382812 45.90625 -39.34375 C 47.03125 -40.300781 48.265625 -40.898438 49.609375 -41.140625 C 51.085938 -41.390625 52.453125 -41.210938 53.703125 -40.609375 C 54.960938 -40.003906 55.722656 -38.960938 55.984375 -37.484375 C 56.097656 -36.835938 56.085938 -36.144531 55.953125 -35.40625 C 54.890625 -28.9375 52.785156 -23.546875 49.640625 -19.234375 C 46.492188 -14.921875 42.785156 -11.566406 38.515625 -9.171875 C 34.242188 -6.785156 29.867188 -5.203125 25.390625 -4.421875 C 20.703125 -3.609375 16.351562 -3.628906 12.34375 -4.484375 C 8.332031 -5.335938 4.988281 -6.96875 2.3125 -9.375 C -0.351562 -11.78125 -2.015625 -14.867188 -2.671875 -18.640625 C -2.859375 -19.742188 -2.9375 -20.890625 -2.90625 -22.078125 C -2.882812 -23.273438 -2.78125 -24.484375 -2.59375 -25.703125 L 0.21875 -43.140625 C 1.050781 -48.222656 3.140625 -52.328125 6.484375 -55.453125 C 9.835938 -58.585938 13.660156 -60.53125 17.953125 -61.28125 C 21.609375 -61.914062 24.90625 -61.765625 27.84375 -60.828125 C 30.78125 -59.890625 33.210938 -58.332031 35.140625 -56.15625 C 37.078125 -53.976562 38.3125 -51.347656 38.84375 -48.265625 C 39.125 -46.671875 39.175781 -44.863281 39 -42.84375 C 38.457031 -38.332031 36.648438 -34.484375 33.578125 -31.296875 C 30.503906 -28.117188 26.789062 -26.148438 22.4375 -25.390625 C 20.507812 -25.054688 18.644531 -25.015625 16.84375 -25.265625 C 15.050781 -25.515625 13.378906 -25.9375 11.828125 -26.53125 L 11.375 -24.5625 C 11.257812 -24.082031 11.207031 -23.613281 11.21875 -23.15625 C 11.238281 -22.695312 11.289062 -22.238281 11.375 -21.78125 C 11.75 -19.613281 13.09375 -17.953125 15.40625 -16.796875 C 17.71875 -15.640625 20.640625 -15.367188 24.171875 -15.984375 C 26.921875 -16.460938 29.660156 -17.484375 32.390625 -19.046875 C 35.117188 -20.617188 37.53125 -22.773438 39.625 -25.515625 C 41.726562 -28.253906 43.160156 -31.609375 43.921875 -35.578125 Z M 19.65625 -49.875 C 18.5625 -49.6875 17.539062 -49.082031 16.59375 -48.0625 C 15.65625 -47.039062 15.054688 -45.742188 14.796875 -44.171875 L 13.78125 -38.078125 C 15.257812 -37.535156 16.988281 -37.4375 18.96875 -37.78125 C 20.445312 -38.039062 21.769531 -38.601562 22.9375 -39.46875 C 24.113281 -40.332031 24.789062 -41.601562 24.96875 -43.28125 C 25.09375 -44.03125 25.082031 -44.820312 24.9375 -45.65625 C 24.695312 -47.0625 24.09375 -48.175781 23.125 -49 C 22.164062 -49.820312 21.007812 -50.113281 19.65625 -49.875 Z M 19.65625 -49.875 "/></g></g></g><g fill="#ff5757" fill-opacity="1"><g transform="translate(218.696348, 253.266835)"><g><path d="M 43.890625 -36.359375 C 44.078125 -37.910156 44.660156 -39.085938 45.640625 -39.890625 C 46.628906 -40.691406 47.734375 -41.195312 48.953125 -41.40625 C 50.484375 -41.675781 51.984375 -41.492188 53.453125 -40.859375 C 54.921875 -40.222656 55.785156 -39.164062 56.046875 -37.6875 C 56.117188 -37.25 56.113281 -36.71875 56.03125 -36.09375 C 54.625 -27.46875 52.046875 -20.535156 48.296875 -15.296875 C 44.554688 -10.054688 40.0625 -6.976562 34.8125 -6.0625 C 32.175781 -5.601562 29.632812 -5.753906 27.1875 -6.515625 C 24.75 -7.285156 22.691406 -8.597656 21.015625 -10.453125 C 19.347656 -12.304688 18.273438 -14.609375 17.796875 -17.359375 C 17.460938 -19.285156 17.484375 -21.40625 17.859375 -23.71875 L 20.046875 -36.171875 C 20.117188 -36.910156 20.113281 -37.507812 20.03125 -37.96875 C 19.84375 -39.050781 19.363281 -39.820312 18.59375 -40.28125 C 17.820312 -40.75 16.925781 -41.078125 15.90625 -41.265625 C 14.882812 -41.453125 13.898438 -41.585938 12.953125 -41.671875 L 10.0625 -26.3125 C 9.757812 -24.675781 9.050781 -23.363281 7.9375 -22.375 C 6.832031 -21.382812 5.601562 -20.773438 4.25 -20.546875 C 2.90625 -20.304688 1.632812 -20.492188 0.4375 -21.109375 C -0.757812 -21.734375 -1.5 -22.851562 -1.78125 -24.46875 C -1.882812 -25.101562 -1.910156 -25.820312 -1.859375 -26.625 L 1.875 -46.78125 C -0.0820312 -48.488281 -1.28125 -50.625 -1.71875 -53.1875 C -2.195312 -55.9375 -1.820312 -58.507812 -0.59375 -60.90625 C 0.632812 -63.3125 2.660156 -64.757812 5.484375 -65.25 C 7.660156 -65.625 9.71875 -65.15625 11.65625 -63.84375 C 13.601562 -62.53125 14.773438 -60.753906 15.171875 -58.515625 C 15.328125 -57.609375 15.34375 -56.785156 15.21875 -56.046875 C 16.625 -55.890625 18.335938 -55.609375 20.359375 -55.203125 C 22.378906 -54.796875 24.414062 -54.175781 26.46875 -53.34375 C 28.53125 -52.519531 30.3125 -51.394531 31.8125 -49.96875 C 33.3125 -48.539062 34.265625 -46.671875 34.671875 -44.359375 C 34.804688 -43.523438 34.867188 -42.660156 34.859375 -41.765625 C 34.859375 -40.878906 34.78125 -39.929688 34.625 -38.921875 L 31.703125 -22.140625 C 31.566406 -21.398438 31.5625 -20.675781 31.6875 -19.96875 C 31.789062 -19.320312 32.066406 -18.757812 32.515625 -18.28125 C 32.972656 -17.800781 33.519531 -17.617188 34.15625 -17.734375 C 36.207031 -18.085938 38.097656 -20.03125 39.828125 -23.5625 C 41.566406 -27.101562 42.921875 -31.367188 43.890625 -36.359375 Z M 43.890625 -36.359375 "/></g></g></g><g fill="#ff5757" fill-opacity="1"><g transform="translate(264.168874, 245.351596)"><g><path d="M 43.890625 -36.359375 C 44.078125 -37.910156 44.660156 -39.085938 45.640625 -39.890625 C 46.628906 -40.691406 47.734375 -41.195312 48.953125 -41.40625 C 50.484375 -41.675781 51.984375 -41.492188 53.453125 -40.859375 C 54.921875 -40.222656 55.785156 -39.164062 56.046875 -37.6875 C 56.117188 -37.25 56.113281 -36.71875 56.03125 -36.09375 C 54.625 -27.46875 52.046875 -20.535156 48.296875 -15.296875 C 44.554688 -10.054688 40.0625 -6.976562 34.8125 -6.0625 C 32.175781 -5.601562 29.632812 -5.753906 27.1875 -6.515625 C 24.75 -7.285156 22.691406 -8.597656 21.015625 -10.453125 C 19.347656 -12.304688 18.273438 -14.609375 17.796875 -17.359375 C 17.460938 -19.285156 17.484375 -21.40625 17.859375 -23.71875 L 20.046875 -36.171875 C 20.117188 -36.910156 20.113281 -37.507812 20.03125 -37.96875 C 19.84375 -39.050781 19.363281 -39.820312 18.59375 -40.28125 C 17.820312 -40.75 16.925781 -41.078125 15.90625 -41.265625 C 14.882812 -41.453125 13.898438 -41.585938 12.953125 -41.671875 L 10.0625 -26.3125 C 9.757812 -24.675781 9.050781 -23.363281 7.9375 -22.375 C 6.832031 -21.382812 5.601562 -20.773438 4.25 -20.546875 C 2.90625 -20.304688 1.632812 -20.492188 0.4375 -21.109375 C -0.757812 -21.734375 -1.5 -22.851562 -1.78125 -24.46875 C -1.882812 -25.101562 -1.910156 -25.820312 -1.859375 -26.625 L 1.875 -46.78125 C -0.0820312 -48.488281 -1.28125 -50.625 -1.71875 -53.1875 C -2.195312 -55.9375 -1.820312 -58.507812 -0.59375 -60.90625 C 0.632812 -63.3125 2.660156 -64.757812 5.484375 -65.25 C 7.660156 -65.625 9.71875 -65.15625 11.65625 -63.84375 C 13.601562 -62.53125 14.773438 -60.753906 15.171875 -58.515625 C 15.328125 -57.609375 15.34375 -56.785156 15.21875 -56.046875 C 16.625 -55.890625 18.335938 -55.609375 20.359375 -55.203125 C 22.378906 -54.796875 24.414062 -54.175781 26.46875 -53.34375 C 28.53125 -52.519531 30.3125 -51.394531 31.8125 -49.96875 C 33.3125 -48.539062 34.265625 -46.671875 34.671875 -44.359375 C 34.804688 -43.523438 34.867188 -42.660156 34.859375 -41.765625 C 34.859375 -40.878906 34.78125 -39.929688 34.625 -38.921875 L 31.703125 -22.140625 C 31.566406 -21.398438 31.5625 -20.675781 31.6875 -19.96875 C 31.789062 -19.320312 32.066406 -18.757812 32.515625 -18.28125 C 32.972656 -17.800781 33.519531 -17.617188 34.15625 -17.734375 C 36.207031 -18.085938 38.097656 -20.03125 39.828125 -23.5625 C 41.566406 -27.101562 42.921875 -31.367188 43.890625 -36.359375 Z M 43.890625 -36.359375 "/></g></g></g></svg>